<svg xmlns="http://www.w3.org/2000/svg" width="52.802" height="53.482" viewBox="0 0 52.802 53.482">
    <g id="basketball-svgrepo-com_1_" data-name="basketball-svgrepo-com (1)" transform="translate(-1.886)">
        <path id="Path_8" data-name="Path 8"
              d="M21.02,30.762A4.489,4.489,0,0,0,19.745,29c-1.91-1.584-5.454-1.321-6.52-1.2A26.816,26.816,0,0,0,2.681,44.247C6.083,37.752,12.8,32.75,21.02,30.762Z"
              transform="translate(-0.652 -22.715)" fill="#512888"/>
        <path id="Path_9" data-name="Path 9"
              d="M93.473,0A26.578,26.578,0,0,0,82.836,2.73a8.285,8.285,0,0,1,4.146,1.724A6.9,6.9,0,0,1,89.1,7.567a33.83,33.83,0,0,1,4.368-.433V0Z"
              transform="translate(-66.373)" fill="#512888"/>
        <path id="Path_10" data-name="Path 10"
              d="M166.807,93.493c.286-.139,7.23-4.568,4.592-14.852-.749-2.922-2.9-5.486-5.133-8.215-3.393-4.151-7.238-8.855-7.334-15.9a13.041,13.041,0,0,1,.05-1.331,31.545,31.545,0,0,0-3.887-.384V96.785A29.814,29.814,0,0,0,166.807,93.493Z"
              transform="translate(-125.62 -43.304)" fill="#512888"/>
        <path id="Path_11" data-name="Path 11"
              d="M155.1,0V7.134a33.824,33.824,0,0,1,4.368.433,6.9,6.9,0,0,1,2.122-3.113,8.285,8.285,0,0,1,4.146-1.724A26.576,26.576,0,0,0,155.1,0Z"
              transform="translate(-125.621)" fill="#512888"/>
        <path id="Path_12" data-name="Path 12"
              d="M1.946,78.729c.435,4.847,3.01,9.138,6.066,12.681A19.373,19.373,0,0,1,8.5,81.922c.929-3.4,3.191-6.162,5.585-9.091,3.3-4.038,6.713-8.213,6.8-14.426q.006-.427-.019-.825C9.969,60.231,1.066,68.921,1.946,78.729Z"
              transform="translate(0 -47.211)" fill="#512888"/>
        <path id="Path_13" data-name="Path 13"
              d="M200.241,27.757c-1.3-.129-4.678-.29-6.5,1.227a4.49,4.49,0,0,0-1.268,1.758c8.222,1.988,14.938,6.99,18.34,13.485A26.819,26.819,0,0,0,200.241,27.757Z"
              transform="translate(-156.269 -22.694)" fill="#512888"/>
        <path id="Path_14" data-name="Path 14"
              d="M208.53,78.729c.88-9.809-8.023-18.5-18.922-21.149q-.025.4-.019.825c.085,6.213,3.5,10.388,6.8,14.426,2.394,2.929,4.655,5.7,5.585,9.091a19.373,19.373,0,0,1,.492,9.488C205.52,87.867,208.1,83.576,208.53,78.729Z"
              transform="translate(-153.902 -47.211)" fill="#512888"/>
        <path id="Path_15" data-name="Path 15"
              d="M52.8,93.492a31.189,31.189,0,0,0,11.91,3.292V52.813a31.546,31.546,0,0,0-3.887.384,12.991,12.991,0,0,1,.05,1.331c-.1,7.042-3.942,11.746-7.334,15.9-2.23,2.728-4.37,5.3-5.133,8.215C45.619,89.321,52.732,93.458,52.8,93.492Z"
              transform="translate(-37.614 -43.303)" fill="#512888"/>
    </g>
</svg>
