<svg xmlns="http://www.w3.org/2000/svg" width="68.308" height="34.707" viewBox="0 0 68.308 34.707">
    <g id="football-ball-svgrepo-com" transform="translate(-185.692 -8.365) rotate(90)">
        <g id="Group_3" data-name="Group 3" transform="translate(8.365 -254)">
            <path id="Path_5" data-name="Path 5"
                  d="M9.865,28.968c4.842,4.209,9.809,6.7,12.845,6.7,3.9,0,9.4-2.818,14.421-7.524a55.871,55.871,0,0,1-15.054,1.982A66.447,66.447,0,0,1,9.865,28.968Z"
                  transform="translate(-5.925 32.638)" fill="#512888"/>
            <path id="Path_7" data-name="Path 7"
                  d="M32.59,52.252a48.941,48.941,0,0,0,5.482-22.338A47.633,47.633,0,0,0,31.725,6.556C22.545,1.427,13.23,4.429,10.316,5.6a47.6,47.6,0,0,0-6.951,24.31A47.559,47.559,0,0,0,9.944,53.6C12.487,54.681,22.739,58.346,32.59,52.252ZM16.351,28.516c.5,0,.9.615.9,1.391s-.4,1.389-.9,1.389H14.134A33.357,33.357,0,0,0,15.5,39.619h2.6c.5,0,.9.615.9,1.393s-.4,1.389-.9,1.389h-1.6q.585,1.386,1.342,2.814a3.9,3.9,0,0,1-.24,3.913,1.466,1.466,0,0,1-1.147.633,1.622,1.622,0,0,1-1.39-.987,38.769,38.769,0,0,1-2.7-6.377H9.969c-.5,0-.9-.615-.9-1.389s.4-1.389.9-1.389H11.59A42.136,42.136,0,0,1,10.547,31.3H8.225c-.5,0-.9-.618-.9-1.391s.4-1.389.9-1.389h2.356a47.2,47.2,0,0,1,1.167-8.554H9.969c-.5,0-.9-.615-.9-1.389s.4-1.386.9-1.386h2.509A39.75,39.75,0,0,1,15.059,10.4c.636-1.188,1.769-1.365,2.535-.382a3.95,3.95,0,0,1,.243,3.941,33.277,33.277,0,0,0-1.376,3.229h1.632c.5,0,.9.615.9,1.386s-.4,1.389-.9,1.389H15.558a38.591,38.591,0,0,0-1.4,8.554Z"
                  transform="translate(-3.365 3.954)" fill="#512888"/>
            <path id="Path_6" data-name="Path 6"
                  d="M35.155,6.613C30.352,2.458,25.427,0,22.332,0c-2.889,0-7.524,2.257-12.141,6.1A61.657,61.657,0,0,1,35.155,6.613Z"
                  transform="translate(-5.206)" fill="#512888"/>
        </g>
    </g>
</svg>
