<svg xmlns="http://www.w3.org/2000/svg" width="54.192" height="66.698" viewBox="0 0 54.192 66.698">
    <g id="trash-svgrepo-com" transform="translate(-48)">
        <path id="Path_17" data-name="Path 17"
              d="M98.023,12.506H91.771V4.169A4.169,4.169,0,0,0,87.6,0H62.59a4.169,4.169,0,0,0-4.169,4.169v8.337H52.169A4.169,4.169,0,0,0,48,16.675v4.169h54.192V16.675A4.169,4.169,0,0,0,98.023,12.506Zm-31.265,0V8.337H83.433v4.169Z"
              fill="#ff6663"/>
        <path id="Path_18" data-name="Path 18"
              d="M80,229.518a4.168,4.168,0,0,0,4.168,4.168h37.519a4.168,4.168,0,0,0,4.168-4.168h0V192H80Zm31.265-27.1a2.084,2.084,0,1,1,4.169,0v20.843a2.084,2.084,0,1,1-4.169,0Zm-10.422,0a2.084,2.084,0,1,1,4.169,0v20.843a2.084,2.084,0,1,1-4.169,0Zm-10.422,0a2.084,2.084,0,1,1,4.169,0v20.843a2.084,2.084,0,1,1-4.169,0Z"
              transform="translate(-27.831 -166.988)" fill="#ff6663"/>
    </g>
</svg>
